<mxfile host="app.diagrams.net" modified="2022-08-28T04:02:55.914Z" agent="5.0 (Macintosh; Intel Mac OS X 10_15_7) AppleWebKit/605.1.15 (KHTML, like Gecko) Version/15.6.1 Safari/605.1.15" etag="UrJM44hcu9kCFIIoDIAO" version="20.2.7" type="github">
  <diagram name="Page-1" id="5f0bae14-7c28-e335-631c-24af17079c00">
    <mxGraphModel dx="1618" dy="1870" grid="1" gridSize="10" guides="1" tooltips="1" connect="1" arrows="1" fold="1" page="1" pageScale="1" pageWidth="1100" pageHeight="850" background="none" math="0" shadow="0">
      <root>
        <mxCell id="0" />
        <mxCell id="1" parent="0" />
        <mxCell id="_3enAfRf96Bm5nbUzgbu-195" value="" style="html=1;rounded=0;direction=east;flipV=0;" vertex="1" parent="1">
          <mxGeometry x="360" y="30" width="30" height="30" as="geometry" />
        </mxCell>
        <mxCell id="_3enAfRf96Bm5nbUzgbu-196" value="" style="endArrow=none;html=1;rounded=0;align=center;verticalAlign=top;endFill=0;labelBackgroundColor=none;endSize=2;" edge="1" source="_3enAfRf96Bm5nbUzgbu-195" target="_3enAfRf96Bm5nbUzgbu-197" parent="1">
          <mxGeometry relative="1" as="geometry" />
        </mxCell>
        <mxCell id="_3enAfRf96Bm5nbUzgbu-197" value="" style="shape=requiredInterface;html=1;fontSize=11;align=center;fillColor=none;points=[];aspect=fixed;resizable=0;verticalAlign=bottom;labelPosition=center;verticalLabelPosition=top;flipH=1;flipV=0;rotation=-180;" vertex="1" parent="1">
          <mxGeometry x="310" y="39" width="5" height="10" as="geometry" />
        </mxCell>
        <mxCell id="_3enAfRf96Bm5nbUzgbu-139" value="" style="html=1;dropTarget=0;fillColor=#fff2cc;strokeColor=#d6b656;" vertex="1" parent="1">
          <mxGeometry x="20" y="100" width="760" height="870" as="geometry" />
        </mxCell>
        <mxCell id="_3enAfRf96Bm5nbUzgbu-140" value="" style="shape=module;jettyWidth=8;jettyHeight=4;" vertex="1" parent="_3enAfRf96Bm5nbUzgbu-139">
          <mxGeometry x="1" width="20" height="20" relative="1" as="geometry">
            <mxPoint x="-27" y="7" as="offset" />
          </mxGeometry>
        </mxCell>
        <mxCell id="_3enAfRf96Bm5nbUzgbu-137" value="" style="html=1;dropTarget=0;fillColor=#dae8fc;strokeColor=#6c8ebf;" vertex="1" parent="1">
          <mxGeometry x="992.5" y="100" width="690" height="320" as="geometry" />
        </mxCell>
        <mxCell id="_3enAfRf96Bm5nbUzgbu-138" value="" style="shape=module;jettyWidth=8;jettyHeight=4;" vertex="1" parent="_3enAfRf96Bm5nbUzgbu-137">
          <mxGeometry x="1" width="20" height="20" relative="1" as="geometry">
            <mxPoint x="-27" y="7" as="offset" />
          </mxGeometry>
        </mxCell>
        <mxCell id="_3enAfRf96Bm5nbUzgbu-135" value="" style="html=1;dropTarget=0;fillColor=#d5e8d4;strokeColor=#82b366;" vertex="1" parent="1">
          <mxGeometry x="992.5" y="520" width="690" height="450" as="geometry" />
        </mxCell>
        <mxCell id="_3enAfRf96Bm5nbUzgbu-136" value="" style="shape=module;jettyWidth=8;jettyHeight=4;" vertex="1" parent="_3enAfRf96Bm5nbUzgbu-135">
          <mxGeometry x="1" width="20" height="20" relative="1" as="geometry">
            <mxPoint x="-27" y="7" as="offset" />
          </mxGeometry>
        </mxCell>
        <mxCell id="_3enAfRf96Bm5nbUzgbu-3" value="«component»&lt;br&gt;&lt;b&gt;RecopiladorDatos&lt;/b&gt;" style="html=1;dropTarget=0;" vertex="1" parent="1">
          <mxGeometry x="160" y="170" width="180" height="90" as="geometry" />
        </mxCell>
        <mxCell id="_3enAfRf96Bm5nbUzgbu-4" value="" style="shape=module;jettyWidth=8;jettyHeight=4;" vertex="1" parent="_3enAfRf96Bm5nbUzgbu-3">
          <mxGeometry x="1" width="20" height="20" relative="1" as="geometry">
            <mxPoint x="-27" y="7" as="offset" />
          </mxGeometry>
        </mxCell>
        <mxCell id="_3enAfRf96Bm5nbUzgbu-110" style="edgeStyle=orthogonalEdgeStyle;rounded=0;orthogonalLoop=1;jettySize=auto;html=1;exitX=0.5;exitY=0;exitDx=0;exitDy=0;entryX=0.5;entryY=1;entryDx=0;entryDy=0;" edge="1" parent="1" source="_3enAfRf96Bm5nbUzgbu-13" target="_3enAfRf96Bm5nbUzgbu-108">
          <mxGeometry relative="1" as="geometry">
            <mxPoint x="1450" y="550" as="targetPoint" />
            <Array as="points">
              <mxPoint x="1080" y="690" />
              <mxPoint x="940" y="690" />
            </Array>
          </mxGeometry>
        </mxCell>
        <mxCell id="_3enAfRf96Bm5nbUzgbu-113" value="consultas de ubicaciones monitoreadas y eventos" style="edgeLabel;html=1;align=center;verticalAlign=middle;resizable=0;points=[];" vertex="1" connectable="0" parent="_3enAfRf96Bm5nbUzgbu-110">
          <mxGeometry x="0.4653" relative="1" as="geometry">
            <mxPoint x="70" y="-24" as="offset" />
          </mxGeometry>
        </mxCell>
        <mxCell id="_3enAfRf96Bm5nbUzgbu-120" style="edgeStyle=orthogonalEdgeStyle;rounded=0;orthogonalLoop=1;jettySize=auto;html=1;entryX=0;entryY=0.5;entryDx=0;entryDy=0;exitX=1;exitY=0.25;exitDx=0;exitDy=0;" edge="1" parent="1" source="_3enAfRf96Bm5nbUzgbu-13" target="_3enAfRf96Bm5nbUzgbu-118">
          <mxGeometry relative="1" as="geometry">
            <Array as="points">
              <mxPoint x="1265" y="743" />
              <mxPoint x="1265" y="325" />
            </Array>
          </mxGeometry>
        </mxCell>
        <mxCell id="_3enAfRf96Bm5nbUzgbu-121" value="generar reportes" style="edgeLabel;html=1;align=center;verticalAlign=middle;resizable=0;points=[];" vertex="1" connectable="0" parent="_3enAfRf96Bm5nbUzgbu-120">
          <mxGeometry x="0.6056" y="1" relative="1" as="geometry">
            <mxPoint as="offset" />
          </mxGeometry>
        </mxCell>
        <mxCell id="_3enAfRf96Bm5nbUzgbu-141" style="edgeStyle=orthogonalEdgeStyle;rounded=0;orthogonalLoop=1;jettySize=auto;html=1;entryX=0;entryY=0.5;entryDx=0;entryDy=0;" edge="1" parent="1" source="_3enAfRf96Bm5nbUzgbu-13" target="_3enAfRf96Bm5nbUzgbu-64">
          <mxGeometry relative="1" as="geometry" />
        </mxCell>
        <mxCell id="_3enAfRf96Bm5nbUzgbu-13" value="«component»&lt;br&gt;&lt;b&gt;Clientes&lt;/b&gt;" style="html=1;dropTarget=0;" vertex="1" parent="1">
          <mxGeometry x="1180" y="740" width="180" height="90" as="geometry" />
        </mxCell>
        <mxCell id="_3enAfRf96Bm5nbUzgbu-14" value="" style="shape=module;jettyWidth=8;jettyHeight=4;" vertex="1" parent="_3enAfRf96Bm5nbUzgbu-13">
          <mxGeometry x="1" width="20" height="20" relative="1" as="geometry">
            <mxPoint x="-27" y="7" as="offset" />
          </mxGeometry>
        </mxCell>
        <mxCell id="_3enAfRf96Bm5nbUzgbu-20" value="«component»&lt;br&gt;&lt;b&gt;GestorUbicacion&lt;br&gt;&lt;/b&gt;" style="html=1;dropTarget=0;" vertex="1" parent="1">
          <mxGeometry x="510" y="600" width="180" height="90" as="geometry" />
        </mxCell>
        <mxCell id="_3enAfRf96Bm5nbUzgbu-21" value="" style="shape=module;jettyWidth=8;jettyHeight=4;" vertex="1" parent="_3enAfRf96Bm5nbUzgbu-20">
          <mxGeometry x="1" width="20" height="20" relative="1" as="geometry">
            <mxPoint x="-27" y="7" as="offset" />
          </mxGeometry>
        </mxCell>
        <mxCell id="_3enAfRf96Bm5nbUzgbu-51" value="" style="html=1;rounded=0;" vertex="1" parent="1">
          <mxGeometry x="140" y="200" width="30" height="30" as="geometry" />
        </mxCell>
        <mxCell id="_3enAfRf96Bm5nbUzgbu-52" value="" style="endArrow=none;html=1;rounded=0;align=center;verticalAlign=top;endFill=0;labelBackgroundColor=none;endSize=2;" edge="1" source="_3enAfRf96Bm5nbUzgbu-51" target="_3enAfRf96Bm5nbUzgbu-53" parent="1">
          <mxGeometry relative="1" as="geometry" />
        </mxCell>
        <mxCell id="_3enAfRf96Bm5nbUzgbu-53" value="" style="ellipse;html=1;fontSize=11;align=center;fillColor=none;points=[];aspect=fixed;resizable=0;verticalAlign=bottom;labelPosition=center;verticalLabelPosition=top;flipH=1;" vertex="1" parent="1">
          <mxGeometry x="80" y="210" width="8" height="8" as="geometry" />
        </mxCell>
        <mxCell id="_3enAfRf96Bm5nbUzgbu-64" value="«component»&lt;br&gt;&lt;b&gt;Autenticación&lt;/b&gt;" style="html=1;dropTarget=0;" vertex="1" parent="1">
          <mxGeometry x="1440" y="770" width="180" height="90" as="geometry" />
        </mxCell>
        <mxCell id="_3enAfRf96Bm5nbUzgbu-65" value="" style="shape=module;jettyWidth=8;jettyHeight=4;" vertex="1" parent="_3enAfRf96Bm5nbUzgbu-64">
          <mxGeometry x="1" width="20" height="20" relative="1" as="geometry">
            <mxPoint x="-27" y="7" as="offset" />
          </mxGeometry>
        </mxCell>
        <mxCell id="_3enAfRf96Bm5nbUzgbu-78" value="«component»&lt;br&gt;&lt;b&gt;Notificacion&lt;/b&gt;" style="html=1;dropTarget=0;" vertex="1" parent="1">
          <mxGeometry x="170" y="600" width="180" height="90" as="geometry" />
        </mxCell>
        <mxCell id="_3enAfRf96Bm5nbUzgbu-79" value="" style="shape=module;jettyWidth=8;jettyHeight=4;" vertex="1" parent="_3enAfRf96Bm5nbUzgbu-78">
          <mxGeometry x="1" width="20" height="20" relative="1" as="geometry">
            <mxPoint x="-27" y="7" as="offset" />
          </mxGeometry>
        </mxCell>
        <mxCell id="_3enAfRf96Bm5nbUzgbu-126" style="edgeStyle=orthogonalEdgeStyle;rounded=0;orthogonalLoop=1;jettySize=auto;html=1;entryX=0;entryY=0.5;entryDx=0;entryDy=0;" edge="1" parent="1" source="_3enAfRf96Bm5nbUzgbu-84" target="_3enAfRf96Bm5nbUzgbu-124">
          <mxGeometry relative="1" as="geometry" />
        </mxCell>
        <mxCell id="_3enAfRf96Bm5nbUzgbu-84" value="«component»&lt;br&gt;&lt;b&gt;GestorSeñalesMonitoreo&lt;br&gt;&lt;/b&gt;" style="html=1;dropTarget=0;" vertex="1" parent="1">
          <mxGeometry x="500" y="170" width="180" height="130" as="geometry" />
        </mxCell>
        <mxCell id="_3enAfRf96Bm5nbUzgbu-85" value="" style="shape=module;jettyWidth=8;jettyHeight=4;" vertex="1" parent="_3enAfRf96Bm5nbUzgbu-84">
          <mxGeometry x="1" width="20" height="20" relative="1" as="geometry">
            <mxPoint x="-27" y="7" as="offset" />
          </mxGeometry>
        </mxCell>
        <mxCell id="_3enAfRf96Bm5nbUzgbu-104" value="«component»&lt;br&gt;&lt;b&gt;GestorDispositivos&lt;/b&gt;" style="html=1;dropTarget=0;" vertex="1" parent="1">
          <mxGeometry x="170" y="380" width="180" height="90" as="geometry" />
        </mxCell>
        <mxCell id="_3enAfRf96Bm5nbUzgbu-105" value="" style="shape=module;jettyWidth=8;jettyHeight=4;" vertex="1" parent="_3enAfRf96Bm5nbUzgbu-104">
          <mxGeometry x="1" width="20" height="20" relative="1" as="geometry">
            <mxPoint x="-27" y="7" as="offset" />
          </mxGeometry>
        </mxCell>
        <mxCell id="_3enAfRf96Bm5nbUzgbu-128" style="edgeStyle=orthogonalEdgeStyle;rounded=0;orthogonalLoop=1;jettySize=auto;html=1;" edge="1" parent="1" source="_3enAfRf96Bm5nbUzgbu-108" target="_3enAfRf96Bm5nbUzgbu-124">
          <mxGeometry relative="1" as="geometry">
            <Array as="points">
              <mxPoint x="1100" y="290" />
            </Array>
          </mxGeometry>
        </mxCell>
        <mxCell id="_3enAfRf96Bm5nbUzgbu-131" style="edgeStyle=orthogonalEdgeStyle;rounded=0;orthogonalLoop=1;jettySize=auto;html=1;entryX=1;entryY=0.5;entryDx=0;entryDy=0;" edge="1" parent="1" source="_3enAfRf96Bm5nbUzgbu-108" target="_3enAfRf96Bm5nbUzgbu-20">
          <mxGeometry relative="1" as="geometry">
            <Array as="points">
              <mxPoint x="1380" y="315" />
              <mxPoint x="1380" y="645" />
            </Array>
          </mxGeometry>
        </mxCell>
        <mxCell id="_3enAfRf96Bm5nbUzgbu-108" value="«component»&lt;br&gt;&lt;b&gt;MotorBusqueda&lt;/b&gt;" style="html=1;dropTarget=0;" vertex="1" parent="1">
          <mxGeometry x="1010" y="280" width="180" height="90" as="geometry" />
        </mxCell>
        <mxCell id="_3enAfRf96Bm5nbUzgbu-109" value="" style="shape=module;jettyWidth=8;jettyHeight=4;" vertex="1" parent="_3enAfRf96Bm5nbUzgbu-108">
          <mxGeometry x="1" width="20" height="20" relative="1" as="geometry">
            <mxPoint x="-27" y="7" as="offset" />
          </mxGeometry>
        </mxCell>
        <mxCell id="_3enAfRf96Bm5nbUzgbu-130" style="edgeStyle=orthogonalEdgeStyle;rounded=0;orthogonalLoop=1;jettySize=auto;html=1;entryX=1;entryY=0.25;entryDx=0;entryDy=0;" edge="1" parent="1" source="_3enAfRf96Bm5nbUzgbu-118" target="_3enAfRf96Bm5nbUzgbu-124">
          <mxGeometry relative="1" as="geometry">
            <Array as="points">
              <mxPoint x="1400" y="163" />
            </Array>
          </mxGeometry>
        </mxCell>
        <mxCell id="_3enAfRf96Bm5nbUzgbu-118" value="«component»&lt;br&gt;&lt;b&gt;GeneradorReporte&lt;/b&gt;" style="html=1;dropTarget=0;" vertex="1" parent="1">
          <mxGeometry x="1502.5" y="280" width="180" height="90" as="geometry" />
        </mxCell>
        <mxCell id="_3enAfRf96Bm5nbUzgbu-119" value="" style="shape=module;jettyWidth=8;jettyHeight=4;" vertex="1" parent="_3enAfRf96Bm5nbUzgbu-118">
          <mxGeometry x="1" width="20" height="20" relative="1" as="geometry">
            <mxPoint x="-27" y="7" as="offset" />
          </mxGeometry>
        </mxCell>
        <mxCell id="_3enAfRf96Bm5nbUzgbu-124" value="«component»&lt;br&gt;&lt;b&gt;DatosHistoricos&lt;br&gt;&lt;/b&gt;" style="html=1;dropTarget=0;" vertex="1" parent="1">
          <mxGeometry x="1190" y="128" width="180" height="90" as="geometry" />
        </mxCell>
        <mxCell id="_3enAfRf96Bm5nbUzgbu-125" value="" style="shape=module;jettyWidth=8;jettyHeight=4;" vertex="1" parent="_3enAfRf96Bm5nbUzgbu-124">
          <mxGeometry x="1" width="20" height="20" relative="1" as="geometry">
            <mxPoint x="-27" y="7" as="offset" />
          </mxGeometry>
        </mxCell>
        <mxCell id="_3enAfRf96Bm5nbUzgbu-127" value="Registrar datos y recolectar datos" style="text;html=1;align=center;verticalAlign=middle;resizable=0;points=[];autosize=1;strokeColor=none;fillColor=none;" vertex="1" parent="1">
          <mxGeometry x="710" y="188" width="210" height="30" as="geometry" />
        </mxCell>
        <mxCell id="_3enAfRf96Bm5nbUzgbu-132" value="consultar reglas de monitoreo" style="text;html=1;align=center;verticalAlign=middle;resizable=0;points=[];autosize=1;strokeColor=none;fillColor=none;" vertex="1" parent="1">
          <mxGeometry x="1020" y="590" width="180" height="30" as="geometry" />
        </mxCell>
        <mxCell id="_3enAfRf96Bm5nbUzgbu-199" value="" style="endArrow=none;html=1;rounded=0;align=center;verticalAlign=top;endFill=0;labelBackgroundColor=none;endSize=2;exitX=0;exitY=0.5;exitDx=0;exitDy=0;" edge="1" source="_3enAfRf96Bm5nbUzgbu-265" target="_3enAfRf96Bm5nbUzgbu-200" parent="1">
          <mxGeometry relative="1" as="geometry" />
        </mxCell>
        <mxCell id="_3enAfRf96Bm5nbUzgbu-200" value="" style="ellipse;html=1;fontSize=11;align=center;fillColor=none;points=[];aspect=fixed;resizable=0;verticalAlign=bottom;labelPosition=center;verticalLabelPosition=top;flipH=1;" vertex="1" parent="1">
          <mxGeometry x="390" y="421" width="8" height="8" as="geometry" />
        </mxCell>
        <mxCell id="_3enAfRf96Bm5nbUzgbu-201" value="" style="html=1;rounded=0;direction=east;flipV=0;" vertex="1" parent="1">
          <mxGeometry x="480" y="199" width="30" height="30" as="geometry" />
        </mxCell>
        <mxCell id="_3enAfRf96Bm5nbUzgbu-202" value="" style="endArrow=none;html=1;rounded=0;align=center;verticalAlign=top;endFill=0;labelBackgroundColor=none;endSize=2;" edge="1" parent="1" source="_3enAfRf96Bm5nbUzgbu-201" target="_3enAfRf96Bm5nbUzgbu-203">
          <mxGeometry relative="1" as="geometry" />
        </mxCell>
        <mxCell id="_3enAfRf96Bm5nbUzgbu-203" value="" style="shape=requiredInterface;html=1;fontSize=11;align=center;fillColor=none;points=[];aspect=fixed;resizable=0;verticalAlign=bottom;labelPosition=center;verticalLabelPosition=top;flipH=1;flipV=0;rotation=-180;" vertex="1" parent="1">
          <mxGeometry x="430" y="208" width="5" height="10" as="geometry" />
        </mxCell>
        <mxCell id="_3enAfRf96Bm5nbUzgbu-207" value="" style="html=1;rounded=0;" vertex="1" parent="1">
          <mxGeometry x="330" y="198" width="30" height="30" as="geometry" />
        </mxCell>
        <mxCell id="_3enAfRf96Bm5nbUzgbu-208" value="" style="endArrow=none;html=1;rounded=0;align=center;verticalAlign=top;endFill=0;labelBackgroundColor=none;endSize=2;" edge="1" source="_3enAfRf96Bm5nbUzgbu-207" target="_3enAfRf96Bm5nbUzgbu-209" parent="1">
          <mxGeometry relative="1" as="geometry" />
        </mxCell>
        <mxCell id="_3enAfRf96Bm5nbUzgbu-209" value="" style="ellipse;html=1;fontSize=11;align=center;fillColor=none;points=[];aspect=fixed;resizable=0;verticalAlign=bottom;labelPosition=center;verticalLabelPosition=top;flipH=1;" vertex="1" parent="1">
          <mxGeometry x="422" y="209" width="8" height="8" as="geometry" />
        </mxCell>
        <mxCell id="_3enAfRf96Bm5nbUzgbu-210" value="Enviar datos" style="text;html=1;align=center;verticalAlign=middle;resizable=0;points=[];autosize=1;strokeColor=none;fillColor=none;" vertex="1" parent="1">
          <mxGeometry x="380" y="180" width="90" height="30" as="geometry" />
        </mxCell>
        <mxCell id="_3enAfRf96Bm5nbUzgbu-211" value="" style="html=1;rounded=0;" vertex="1" parent="1">
          <mxGeometry x="330" y="410" width="30" height="30" as="geometry" />
        </mxCell>
        <mxCell id="_3enAfRf96Bm5nbUzgbu-212" value="" style="endArrow=none;html=1;rounded=0;align=center;verticalAlign=top;endFill=0;labelBackgroundColor=none;endSize=2;" edge="1" source="_3enAfRf96Bm5nbUzgbu-211" target="_3enAfRf96Bm5nbUzgbu-213" parent="1">
          <mxGeometry relative="1" as="geometry" />
        </mxCell>
        <mxCell id="_3enAfRf96Bm5nbUzgbu-213" value="" style="shape=requiredInterface;html=1;fontSize=11;align=center;fillColor=none;points=[];aspect=fixed;resizable=0;verticalAlign=bottom;labelPosition=center;verticalLabelPosition=top;flipH=1;" vertex="1" parent="1">
          <mxGeometry x="385" y="420" width="5" height="10" as="geometry" />
        </mxCell>
        <mxCell id="_3enAfRf96Bm5nbUzgbu-214" value="Gestor configuracion" style="text;html=1;align=center;verticalAlign=middle;resizable=0;points=[];autosize=1;strokeColor=none;fillColor=none;" vertex="1" parent="1">
          <mxGeometry x="355" y="380" width="140" height="30" as="geometry" />
        </mxCell>
        <mxCell id="_3enAfRf96Bm5nbUzgbu-216" value="" style="html=1;rounded=0;" vertex="1" parent="1">
          <mxGeometry x="340" y="631" width="30" height="30" as="geometry" />
        </mxCell>
        <mxCell id="_3enAfRf96Bm5nbUzgbu-217" value="" style="endArrow=none;html=1;rounded=0;align=center;verticalAlign=top;endFill=0;labelBackgroundColor=none;endSize=2;" edge="1" source="_3enAfRf96Bm5nbUzgbu-216" target="_3enAfRf96Bm5nbUzgbu-218" parent="1">
          <mxGeometry relative="1" as="geometry" />
        </mxCell>
        <mxCell id="_3enAfRf96Bm5nbUzgbu-218" value="" style="shape=requiredInterface;html=1;fontSize=11;align=center;fillColor=none;points=[];aspect=fixed;resizable=0;verticalAlign=bottom;labelPosition=center;verticalLabelPosition=top;flipH=1;" vertex="1" parent="1">
          <mxGeometry x="400" y="640" width="5" height="10" as="geometry" />
        </mxCell>
        <mxCell id="_3enAfRf96Bm5nbUzgbu-219" value="" style="html=1;rounded=0;" vertex="1" parent="1">
          <mxGeometry x="100" y="29" width="30" height="30" as="geometry" />
        </mxCell>
        <mxCell id="_3enAfRf96Bm5nbUzgbu-220" value="" style="endArrow=none;html=1;rounded=0;align=center;verticalAlign=top;endFill=0;labelBackgroundColor=none;endSize=2;" edge="1" source="_3enAfRf96Bm5nbUzgbu-219" target="_3enAfRf96Bm5nbUzgbu-221" parent="1">
          <mxGeometry relative="1" as="geometry" />
        </mxCell>
        <mxCell id="_3enAfRf96Bm5nbUzgbu-221" value="" style="ellipse;html=1;fontSize=11;align=center;fillColor=none;points=[];aspect=fixed;resizable=0;verticalAlign=bottom;labelPosition=center;verticalLabelPosition=top;flipH=1;" vertex="1" parent="1">
          <mxGeometry x="50" y="41" width="8" height="8" as="geometry" />
        </mxCell>
        <mxCell id="_3enAfRf96Bm5nbUzgbu-222" value="" style="html=1;rounded=0;" vertex="1" parent="1">
          <mxGeometry x="490" y="630" width="30" height="30" as="geometry" />
        </mxCell>
        <mxCell id="_3enAfRf96Bm5nbUzgbu-223" value="" style="endArrow=none;html=1;rounded=0;align=center;verticalAlign=top;endFill=0;labelBackgroundColor=none;endSize=2;" edge="1" parent="1" source="_3enAfRf96Bm5nbUzgbu-222" target="_3enAfRf96Bm5nbUzgbu-224">
          <mxGeometry relative="1" as="geometry" />
        </mxCell>
        <mxCell id="_3enAfRf96Bm5nbUzgbu-224" value="" style="ellipse;html=1;fontSize=11;align=center;fillColor=none;points=[];aspect=fixed;resizable=0;verticalAlign=bottom;labelPosition=center;verticalLabelPosition=top;flipH=1;" vertex="1" parent="1">
          <mxGeometry x="405" y="641" width="8" height="8" as="geometry" />
        </mxCell>
        <mxCell id="_3enAfRf96Bm5nbUzgbu-225" value="Gestor notificaciones" style="text;html=1;align=center;verticalAlign=middle;resizable=0;points=[];autosize=1;strokeColor=none;fillColor=none;" vertex="1" parent="1">
          <mxGeometry x="370" y="600" width="140" height="30" as="geometry" />
        </mxCell>
        <mxCell id="_3enAfRf96Bm5nbUzgbu-226" value="" style="html=1;rounded=0;" vertex="1" parent="1">
          <mxGeometry x="150" y="410" width="30" height="30" as="geometry" />
        </mxCell>
        <mxCell id="_3enAfRf96Bm5nbUzgbu-227" value="" style="endArrow=none;html=1;rounded=0;align=center;verticalAlign=top;endFill=0;labelBackgroundColor=none;endSize=2;" edge="1" parent="1" source="_3enAfRf96Bm5nbUzgbu-226" target="_3enAfRf96Bm5nbUzgbu-228">
          <mxGeometry relative="1" as="geometry" />
        </mxCell>
        <mxCell id="_3enAfRf96Bm5nbUzgbu-228" value="" style="ellipse;html=1;fontSize=11;align=center;fillColor=none;points=[];aspect=fixed;resizable=0;verticalAlign=bottom;labelPosition=center;verticalLabelPosition=top;flipH=1;" vertex="1" parent="1">
          <mxGeometry x="100" y="422" width="8" height="8" as="geometry" />
        </mxCell>
        <mxCell id="_3enAfRf96Bm5nbUzgbu-229" value="" style="html=1;rounded=0;" vertex="1" parent="1">
          <mxGeometry x="158" y="630" width="30" height="30" as="geometry" />
        </mxCell>
        <mxCell id="_3enAfRf96Bm5nbUzgbu-230" value="" style="endArrow=none;html=1;rounded=0;align=center;verticalAlign=top;endFill=0;labelBackgroundColor=none;endSize=2;" edge="1" parent="1" source="_3enAfRf96Bm5nbUzgbu-229" target="_3enAfRf96Bm5nbUzgbu-231">
          <mxGeometry relative="1" as="geometry" />
        </mxCell>
        <mxCell id="_3enAfRf96Bm5nbUzgbu-231" value="" style="ellipse;html=1;fontSize=11;align=center;fillColor=none;points=[];aspect=fixed;resizable=0;verticalAlign=bottom;labelPosition=center;verticalLabelPosition=top;flipH=1;" vertex="1" parent="1">
          <mxGeometry x="108" y="642" width="8" height="8" as="geometry" />
        </mxCell>
        <mxCell id="_3enAfRf96Bm5nbUzgbu-235" value="" style="html=1;rounded=0;" vertex="1" parent="1">
          <mxGeometry x="500" y="49" width="30" height="30" as="geometry" />
        </mxCell>
        <mxCell id="_3enAfRf96Bm5nbUzgbu-236" value="" style="endArrow=none;html=1;rounded=0;align=center;verticalAlign=top;endFill=0;labelBackgroundColor=none;endSize=2;" edge="1" source="_3enAfRf96Bm5nbUzgbu-235" target="_3enAfRf96Bm5nbUzgbu-237" parent="1">
          <mxGeometry relative="1" as="geometry" />
        </mxCell>
        <mxCell id="_3enAfRf96Bm5nbUzgbu-237" value="" style="shape=requiredInterface;html=1;fontSize=11;align=center;fillColor=none;points=[];aspect=fixed;resizable=0;verticalAlign=bottom;labelPosition=center;verticalLabelPosition=top;flipH=1;rotation=-90;" vertex="1" parent="1">
          <mxGeometry x="512.5" y="20" width="5" height="10" as="geometry" />
        </mxCell>
        <mxCell id="_3enAfRf96Bm5nbUzgbu-238" value="" style="html=1;rounded=0;" vertex="1" parent="1">
          <mxGeometry x="530" y="579" width="30" height="30" as="geometry" />
        </mxCell>
        <mxCell id="_3enAfRf96Bm5nbUzgbu-239" value="" style="endArrow=none;html=1;rounded=0;align=center;verticalAlign=top;endFill=0;labelBackgroundColor=none;endSize=2;" edge="1" parent="1" source="_3enAfRf96Bm5nbUzgbu-238" target="_3enAfRf96Bm5nbUzgbu-240">
          <mxGeometry relative="1" as="geometry" />
        </mxCell>
        <mxCell id="_3enAfRf96Bm5nbUzgbu-240" value="" style="shape=requiredInterface;html=1;fontSize=11;align=center;fillColor=none;points=[];aspect=fixed;resizable=0;verticalAlign=bottom;labelPosition=center;verticalLabelPosition=top;flipH=1;rotation=-90;" vertex="1" parent="1">
          <mxGeometry x="542.5" y="460" width="5" height="10" as="geometry" />
        </mxCell>
        <mxCell id="_3enAfRf96Bm5nbUzgbu-241" value="" style="html=1;rounded=0;" vertex="1" parent="1">
          <mxGeometry x="770" y="20" width="30" height="30" as="geometry" />
        </mxCell>
        <mxCell id="_3enAfRf96Bm5nbUzgbu-242" value="" style="endArrow=none;html=1;rounded=0;align=center;verticalAlign=top;endFill=0;labelBackgroundColor=none;endSize=2;" edge="1" parent="1" source="_3enAfRf96Bm5nbUzgbu-241" target="_3enAfRf96Bm5nbUzgbu-243">
          <mxGeometry relative="1" as="geometry" />
        </mxCell>
        <mxCell id="_3enAfRf96Bm5nbUzgbu-243" value="" style="ellipse;html=1;fontSize=11;align=center;fillColor=none;points=[];aspect=fixed;resizable=0;verticalAlign=bottom;labelPosition=center;verticalLabelPosition=top;flipH=1;" vertex="1" parent="1">
          <mxGeometry x="781" y="79" width="8" height="8" as="geometry" />
        </mxCell>
        <mxCell id="_3enAfRf96Bm5nbUzgbu-247" value="" style="html=1;rounded=0;" vertex="1" parent="1">
          <mxGeometry x="530" y="291.5" width="30" height="30" as="geometry" />
        </mxCell>
        <mxCell id="_3enAfRf96Bm5nbUzgbu-248" value="" style="endArrow=none;html=1;rounded=0;align=center;verticalAlign=top;endFill=0;labelBackgroundColor=none;endSize=2;" edge="1" parent="1" source="_3enAfRf96Bm5nbUzgbu-247" target="_3enAfRf96Bm5nbUzgbu-249">
          <mxGeometry relative="1" as="geometry" />
        </mxCell>
        <mxCell id="_3enAfRf96Bm5nbUzgbu-249" value="" style="ellipse;html=1;fontSize=11;align=center;fillColor=none;points=[];aspect=fixed;resizable=0;verticalAlign=bottom;labelPosition=center;verticalLabelPosition=top;flipH=1;" vertex="1" parent="1">
          <mxGeometry x="542" y="452" width="8" height="8" as="geometry" />
        </mxCell>
        <mxCell id="_3enAfRf96Bm5nbUzgbu-250" value="Gestor Mensaje" style="text;html=1;align=center;verticalAlign=middle;resizable=0;points=[];autosize=1;strokeColor=none;fillColor=none;" vertex="1" parent="1">
          <mxGeometry x="590" y="19" width="110" height="30" as="geometry" />
        </mxCell>
        <mxCell id="_3enAfRf96Bm5nbUzgbu-251" value="Gestor Acciones" style="text;html=1;align=center;verticalAlign=middle;resizable=0;points=[];autosize=1;strokeColor=none;fillColor=none;" vertex="1" parent="1">
          <mxGeometry x="440" y="440" width="110" height="30" as="geometry" />
        </mxCell>
        <mxCell id="_3enAfRf96Bm5nbUzgbu-252" value="" style="html=1;rounded=0;direction=east;flipV=0;" vertex="1" parent="1">
          <mxGeometry x="980" y="9" width="30" height="30" as="geometry" />
        </mxCell>
        <mxCell id="_3enAfRf96Bm5nbUzgbu-253" value="" style="endArrow=none;html=1;rounded=0;align=center;verticalAlign=top;endFill=0;labelBackgroundColor=none;endSize=2;" edge="1" parent="1" source="_3enAfRf96Bm5nbUzgbu-252" target="_3enAfRf96Bm5nbUzgbu-254">
          <mxGeometry relative="1" as="geometry" />
        </mxCell>
        <mxCell id="_3enAfRf96Bm5nbUzgbu-254" value="" style="shape=requiredInterface;html=1;fontSize=11;align=center;fillColor=none;points=[];aspect=fixed;resizable=0;verticalAlign=bottom;labelPosition=center;verticalLabelPosition=top;flipH=1;flipV=0;rotation=90;" vertex="1" parent="1">
          <mxGeometry x="992.5" y="60" width="5" height="10" as="geometry" />
        </mxCell>
        <mxCell id="_3enAfRf96Bm5nbUzgbu-255" value="" style="html=1;rounded=0;direction=east;flipV=0;" vertex="1" parent="1">
          <mxGeometry x="630" y="291.5" width="30" height="30" as="geometry" />
        </mxCell>
        <mxCell id="_3enAfRf96Bm5nbUzgbu-256" value="" style="endArrow=none;html=1;rounded=0;align=center;verticalAlign=top;endFill=0;labelBackgroundColor=none;endSize=2;" edge="1" parent="1" source="_3enAfRf96Bm5nbUzgbu-255" target="_3enAfRf96Bm5nbUzgbu-257">
          <mxGeometry relative="1" as="geometry" />
        </mxCell>
        <mxCell id="_3enAfRf96Bm5nbUzgbu-257" value="" style="shape=requiredInterface;html=1;fontSize=11;align=center;fillColor=none;points=[];aspect=fixed;resizable=0;verticalAlign=bottom;labelPosition=center;verticalLabelPosition=top;flipH=1;flipV=0;rotation=90;" vertex="1" parent="1">
          <mxGeometry x="642.5" y="442" width="5" height="10" as="geometry" />
        </mxCell>
        <mxCell id="_3enAfRf96Bm5nbUzgbu-258" value="" style="html=1;rounded=0;" vertex="1" parent="1">
          <mxGeometry x="1070" y="31.5" width="30" height="30" as="geometry" />
        </mxCell>
        <mxCell id="_3enAfRf96Bm5nbUzgbu-259" value="" style="endArrow=none;html=1;rounded=0;align=center;verticalAlign=top;endFill=0;labelBackgroundColor=none;endSize=2;" edge="1" parent="1" source="_3enAfRf96Bm5nbUzgbu-258" target="_3enAfRf96Bm5nbUzgbu-260">
          <mxGeometry relative="1" as="geometry" />
        </mxCell>
        <mxCell id="_3enAfRf96Bm5nbUzgbu-260" value="" style="ellipse;html=1;fontSize=11;align=center;fillColor=none;points=[];aspect=fixed;resizable=0;verticalAlign=bottom;labelPosition=center;verticalLabelPosition=top;flipH=1;" vertex="1" parent="1">
          <mxGeometry x="1081" y="-8" width="8" height="8" as="geometry" />
        </mxCell>
        <mxCell id="_3enAfRf96Bm5nbUzgbu-261" value="" style="html=1;rounded=0;" vertex="1" parent="1">
          <mxGeometry x="630" y="579" width="30" height="30" as="geometry" />
        </mxCell>
        <mxCell id="_3enAfRf96Bm5nbUzgbu-262" value="" style="endArrow=none;html=1;rounded=0;align=center;verticalAlign=top;endFill=0;labelBackgroundColor=none;endSize=2;" edge="1" parent="1" source="_3enAfRf96Bm5nbUzgbu-261" target="_3enAfRf96Bm5nbUzgbu-263">
          <mxGeometry relative="1" as="geometry" />
        </mxCell>
        <mxCell id="_3enAfRf96Bm5nbUzgbu-263" value="" style="ellipse;html=1;fontSize=11;align=center;fillColor=none;points=[];aspect=fixed;resizable=0;verticalAlign=bottom;labelPosition=center;verticalLabelPosition=top;flipH=1;" vertex="1" parent="1">
          <mxGeometry x="642.5" y="451" width="8" height="8" as="geometry" />
        </mxCell>
        <mxCell id="_3enAfRf96Bm5nbUzgbu-264" value="Gestor Configuracion" style="text;html=1;align=center;verticalAlign=middle;resizable=0;points=[];autosize=1;strokeColor=none;fillColor=none;" vertex="1" parent="1">
          <mxGeometry x="642.5" y="440" width="140" height="30" as="geometry" />
        </mxCell>
        <mxCell id="_3enAfRf96Bm5nbUzgbu-265" value="" style="html=1;rounded=0;direction=east;flipV=0;" vertex="1" parent="1">
          <mxGeometry x="480" y="250" width="30" height="30" as="geometry" />
        </mxCell>
        <mxCell id="_3enAfRf96Bm5nbUzgbu-270" value="" style="html=1;rounded=0;" vertex="1" parent="1">
          <mxGeometry x="980" y="750" width="30" height="30" as="geometry" />
        </mxCell>
        <mxCell id="_3enAfRf96Bm5nbUzgbu-271" value="" style="endArrow=none;html=1;rounded=0;align=center;verticalAlign=top;endFill=0;labelBackgroundColor=none;endSize=2;" edge="1" parent="1" source="_3enAfRf96Bm5nbUzgbu-270" target="_3enAfRf96Bm5nbUzgbu-272">
          <mxGeometry relative="1" as="geometry" />
        </mxCell>
        <mxCell id="_3enAfRf96Bm5nbUzgbu-272" value="" style="ellipse;html=1;fontSize=11;align=center;fillColor=none;points=[];aspect=fixed;resizable=0;verticalAlign=bottom;labelPosition=center;verticalLabelPosition=top;flipH=1;" vertex="1" parent="1">
          <mxGeometry x="930" y="762" width="8" height="8" as="geometry" />
        </mxCell>
        <mxCell id="_3enAfRf96Bm5nbUzgbu-274" value="" style="html=1;rounded=0;direction=east;flipV=0;" vertex="1" parent="1">
          <mxGeometry x="575" y="679" width="30" height="30" as="geometry" />
        </mxCell>
        <mxCell id="_3enAfRf96Bm5nbUzgbu-275" value="" style="endArrow=none;html=1;rounded=0;align=center;verticalAlign=top;endFill=0;labelBackgroundColor=none;endSize=2;" edge="1" parent="1" source="_3enAfRf96Bm5nbUzgbu-274" target="_3enAfRf96Bm5nbUzgbu-276">
          <mxGeometry relative="1" as="geometry">
            <Array as="points">
              <mxPoint x="590" y="835" />
            </Array>
          </mxGeometry>
        </mxCell>
        <mxCell id="_3enAfRf96Bm5nbUzgbu-276" value="" style="shape=requiredInterface;html=1;fontSize=11;align=center;fillColor=none;points=[];aspect=fixed;resizable=0;verticalAlign=bottom;labelPosition=center;verticalLabelPosition=top;flipH=1;flipV=0;rotation=-5;" vertex="1" parent="1">
          <mxGeometry x="690" y="830" width="5" height="10" as="geometry" />
        </mxCell>
      </root>
    </mxGraphModel>
  </diagram>
</mxfile>
